<?xml version="1.0" encoding="UTF-8" standalone="no"?>
<svg
   xmlns:dc="http://purl.org/dc/elements/1.1/"
   xmlns:cc="http://creativecommons.org/ns#"
   xmlns:rdf="http://www.w3.org/1999/02/22-rdf-syntax-ns#"
   xmlns:svg="http://www.w3.org/2000/svg"
   xmlns="http://www.w3.org/2000/svg"
   viewBox="0 0 785.71997 185.69333"
   height="185.69333"
   width="785.71997"
   xml:space="preserve"
   id="svg2"
   version="1.1"><metadata
     id="metadata8"><rdf:RDF><cc:Work
         rdf:about=""><dc:format>image/svg+xml</dc:format><dc:type
           rdf:resource="http://purl.org/dc/dcmitype/StillImage" /><dc:title></dc:title></cc:Work></rdf:RDF></metadata><defs
     id="defs6" /><g
     transform="matrix(1.3333333,0,0,-1.3333333,0,185.69333)"
     id="g10"><g
       transform="scale(0.1)"
       id="g12"><path
         id="path14"
         style="fill:#c41b31;fill-opacity:1;fill-rule:nonzero;stroke:none"
         d="m 1185.45,928.422 h 330.59 L 1053.74,1392.69 591.273,928.578 H 922.008 V 531.07 L 659.398,267.449 H 263.438 V 665.641 L 788.762,1192.99 383.008,1193.06 0,808.695 V 2.98047 H 802.051 L 1185.45,387.73 v 540.692" /><path
         id="path16"
         style="fill:#232324;fill-opacity:1;fill-rule:nonzero;stroke:none"
         d="M 867.926,2.98047 1185.45,321.609 V 2.98047 Z" /><path
         id="path18"
         style="fill:#232324;fill-opacity:1;fill-rule:nonzero;stroke:none"
         d="M 317.539,1193.06 0,874.414 v 318.646 z" /><path
         id="path20"
         style="fill:#232324;fill-opacity:1;fill-rule:nonzero;stroke:none"
         d="M 538.293,862.125 H 855.664 V 544.77 L 646.016,334.309 H 329.895 v 317.894 l 208.398,209.922" /><path
         id="path22"
         style="fill:#232324;fill-opacity:1;fill-rule:nonzero;stroke:none"
         d="m 1426.97,672.223 c 0,24.562 -9.39,43.074 -27.85,54.984 -11.4,7.242 -32.45,14.359 -64.39,21.832 -18.78,4.246 -32,9.125 -39.25,14.5 -9.78,7.344 -14.51,17.891 -14.51,32.289 0,30.258 18.98,44.957 58.07,44.957 22.17,0 38.01,-4.742 47.05,-14.137 9.18,-9.57 14.4,-25.332 15.46,-46.898 l 0.08,-1.312 h 21.29 l -0.02,1.335 c -0.56,54.438 -27.98,80.887 -83.86,80.887 -52.99,0 -79.84,-21.812 -79.84,-64.832 0,-21.926 8.96,-38.926 26.64,-50.57 8.83,-5.742 25.5,-11.942 50.93,-18.891 20.59,-5.519 33.93,-9.414 39.57,-11.601 10.84,-3.969 18.56,-9.231 22.87,-15.551 3.74,-6.031 5.58,-14.699 5.58,-25.91 0,-15.86 -5.26,-27.559 -16.09,-35.711 -10.65,-8.098 -25.43,-12.16 -43.99,-12.16 -46.34,0 -69.82,22.004 -69.82,65.394 v 8.641 h -22.17 v -10.145 c 0,-25.433 7.77,-45.961 23.07,-60.902 15.48,-15.145 38.51,-22.84 68.5,-22.84 23.97,0 43.68,5.77 58.58,17.156 16,11.953 24.1,28.586 24.1,49.485" /><path
         id="path24"
         style="fill:#232324;fill-opacity:1;fill-rule:nonzero;stroke:none"
         d="m 1624.02,858.113 -72.32,-211.488 -74.69,211.488 h -22.66 l 88.13,-249.972 h 18.49 l 85.7,249.972 h -22.65" /><path
         id="path26"
         style="fill:#232324;fill-opacity:1;fill-rule:nonzero;stroke:none"
         d="m 1822.32,728.496 v 19.496 h -117.19 v 90.285 h 132.19 v 19.836 H 1683.38 V 608.141 h 155.58 v 19.851 h -133.83 v 100.504 h 117.19" /><path
         id="path28"
         style="fill:#232324;fill-opacity:1;fill-rule:nonzero;stroke:none"
         d="m 2060.18,608.141 v 249.972 h -22.17 V 650.395 l -7.4,11.66 c -13.01,20.586 -31.65,49.41 -56.96,88.027 -28.92,44.473 -51.7,80.523 -67.75,107.16 l -0.51,0.871 H 1883.5 V 608.141 h 22.16 v 208.984 l 132.62,-208.984 h 21.9" /><path
         id="path30"
         style="fill:#232324;fill-opacity:1;fill-rule:nonzero;stroke:none"
         d="m 2269.61,672.184 c 0,24.582 -9.36,43.125 -27.83,55.039 -11.41,7.246 -32.48,14.382 -64.4,21.769 -18.75,4.278 -31.99,9.207 -39.25,14.551 -9.77,7.352 -14.5,17.902 -14.5,32.297 0,30.258 18.99,44.996 58.07,44.996 22.17,0 37.99,-4.793 47.05,-14.152 9.2,-9.575 14.41,-25.356 15.47,-46.922 l 0.06,-1.336 h 21.29 v 1.355 c -0.57,54.43 -27.97,80.867 -83.87,80.867 -52.97,0 -79.82,-21.769 -79.82,-64.808 0,-21.93 8.94,-38.945 26.64,-50.57 8.88,-5.782 25.52,-11.954 50.89,-18.903 20.59,-5.519 33.91,-9.426 39.61,-11.621 10.82,-3.93 18.52,-9.191 22.86,-15.543 3.73,-6.09 5.58,-14.746 5.58,-25.879 0,-15.898 -5.23,-27.578 -16.11,-35.73 -10.61,-8.098 -25.43,-12.121 -43.97,-12.121 -46.33,0 -69.82,21.972 -69.82,65.355 v 8.641 h -22.19 v -10.11 c 0,-25.449 7.77,-45.945 23.09,-60.937 15.47,-15.145 38.49,-22.84 68.51,-22.84 23.95,0 43.66,5.801 58.54,17.188 16.03,11.894 24.1,28.543 24.1,49.414" /><path
         id="path32"
         style="fill:#232324;fill-opacity:1;fill-rule:nonzero;stroke:none"
         d="m 2461.31,608.141 h 27.6 l -117.05,142.023 113.45,107.949 h -30.37 L 2319.61,728.551 v 129.562 h -22.19 V 608.141 h 22.19 v 91.379 l 36.76,36.207 104.94,-127.586" /><path
         id="path34"
         style="fill:#232324;fill-opacity:1;fill-rule:nonzero;stroke:none"
         d="m 2605.82,819.449 40.14,-113.398 h -81.78 z m 47.19,-133.664 27.6,-77.644 h 23.06 l -88.14,249.972 h -19.65 l -91.9,-249.972 h 24.32 l 27.99,77.644 h 96.72" /><path
         id="path36"
         style="fill:#232324;fill-opacity:1;fill-rule:nonzero;stroke:none"
         d="M 1634.79,2.98047 H 1572.4 V 255.461 H 1315.14 V 2.98047 h -62.42 V 544.215 h 62.42 V 313.18 h 257.26 v 231.035 h 62.39 V 2.98047" /><path
         id="path38"
         style="fill:#232324;fill-opacity:1;fill-rule:nonzero;stroke:none"
         d="m 1844.94,532.613 c 0,-15.625 0,-24.922 -30.33,-24.922 h -39.46 c -28.83,0 -28.83,9.297 -28.83,24.922 0,15.614 0,24.93 28.83,24.93 h 39.46 c 30.33,0 30.33,-9.316 30.33,-24.93 z m 60.69,-0.332 c 0,16.055 0,25.614 30.3,25.614 h 39.48 c 28.84,0 28.84,-9.559 28.84,-25.614 0,-14.258 0,-24.875 -27.91,-24.875 l -40.41,-0.058 c -30.3,0 -30.3,9.328 -30.3,24.933 z M 1875.08,434 c -52.35,0 -89.87,-19.434 -114.85,-59.449 -20.81,-32.781 -31.34,-75.93 -31.34,-128.172 0,-51.957 10.55,-95.82 31.42,-130.328 25.92,-42.6994 63.49,-63.4612 114.77,-63.4612 52.31,0 90.1,20.3321 115.58,62.1092 20.82,34.102 31.37,78.379 31.37,131.68 0,53.18 -10.54,96.742 -31.3,129.43 C 1965.81,414.957 1928,434 1875.08,434 Z m 0,-434 c -70.35,0 -123.9,27.4609 -159.11,81.6484 -28.19,43.0236 -42.49,98.4026 -42.49,164.7306 0,64.012 13.79,117.582 41.02,159.242 35.22,53.731 89.26,80.945 160.58,80.945 71.81,0 126.11,-27.214 161.35,-80.918 27.23,-41.726 41.02,-95.296 41.02,-159.269 0,-64.43 -13.52,-118.649 -40.17,-161.1876 C 2001.54,28.6406 1946.98,0 1875.08,0" /><path
         id="path40"
         style="fill:#232324;fill-opacity:1;fill-rule:nonzero;stroke:none"
         d="m 2257.44,0 c -88.93,0 -137.68,48.5508 -144.89,144.391 l -0.89,12.05 h 62.64 l 0.64,-10.671 c 4.69,-78.2817 47.91,-87.3403 80,-87.3403 34.54,0 57.08,9.6406 68.84,29.3594 9.58,16.5199 14.42,44.6719 14.42,83.3909 v 375.418 h 62.47 V 166.602 C 2400.67,56.0508 2352.49,0 2257.44,0" /><path
         id="path42"
         style="fill:#232324;fill-opacity:1;fill-rule:nonzero;stroke:none"
         d="m 2539.72,61.4297 h 93.39 c 62.52,0 107.07,21.2812 136.27,65.0003 23.92,36.261 36.01,85.519 36.01,146.422 0,143.273 -49.77,212.933 -152.13,212.933 H 2539.72 Z M 2631.46,2.98047 H 2477.31 V 544.215 h 175.95 c 80.12,0 139.14,-31.875 175.39,-94.727 25.99,-45.351 39.17,-104.75 39.17,-176.636 0,-73.274 -16.48,-134.223 -48.91,-181.2036 C 2777.48,32.7891 2714.45,2.98047 2631.46,2.98047" /><path
         id="path44"
         style="fill:#232324;fill-opacity:1;fill-rule:nonzero;stroke:none"
         d="m 2978.58,313.18 h 150.43 c 28.97,0 50.6,7.98 66.18,24.398 14.76,15.25 22.12,36.402 22.12,63.043 0,26.453 -7.41,46.856 -22.81,62.52 -15.06,15.222 -36.19,22.636 -64.66,22.636 h -151.26 z m 0,-251.7503 h 152.11 c 32.93,0 57.34,8.7617 74.62,26.7891 16.98,16.8322 25.49,40.2932 25.49,69.8832 0,31.039 -8.78,55.199 -26.01,71.82 -17.32,16.68 -42.4,24.789 -76.64,24.789 H 2978.58 Z M 3123.13,2.98047 H 2916.14 V 544.223 h 214.55 c 48.36,0 86.55,-15.008 113.57,-44.598 23.58,-26.543 35.54,-61.074 35.54,-102.852 0,-46.695 -18.19,-83.164 -54.13,-108.671 44.27,-24.012 66.7,-67.403 66.7,-129.262 0,-46.629 -14.8,-84.6095 -44.04,-112.9181 C 3218.88,17.4414 3176.8,2.98047 3123.13,2.98047" /><path
         id="path46"
         style="fill:#232324;fill-opacity:1;fill-rule:nonzero;stroke:none"
         d="m 3540.63,485.875 c -58.97,0 -101.25,-21.945 -129.35,-67.023 -23.49,-36.391 -35.3,-84.473 -35.3,-142.852 0,-58.52 11.86,-107.68 35.32,-146.02 29.28,-48.1089 71.59,-71.5112 129.33,-71.5112 58.95,0 101.51,22.8906 130.21,70.0002 23.47,38.429 35.37,88.051 35.37,147.531 0,59.371 -11.86,107.879 -35.22,144.25 -28.61,44.121 -71.25,65.625 -130.36,65.625 z M 3540.63,0 C 3461.42,0 3401.09,30.6797 3361.4,91.1914 3329.65,139.121 3313.54,201.309 3313.54,276 c 0,71.102 15.58,130.988 46.23,177.91 39.67,60.02 100.52,90.422 180.86,90.422 80.88,0 142.08,-30.402 181.73,-90.371 30.71,-46.418 46.26,-106.313 46.26,-177.961 0,-72.031 -15.24,-132.629 -45.25,-180.1016 C 3683.13,32.2617 3621.65,0 3540.63,0" /><path
         id="path48"
         style="fill:#232324;fill-opacity:1;fill-rule:nonzero;stroke:none"
         d="M 4139.67,2.98047 H 3826.35 V 544.223 h 62.43 V 61.4297 h 250.89 V 2.98047" /><path
         id="path50"
         style="fill:#232324;fill-opacity:1;fill-rule:nonzero;stroke:none"
         d="m 4344.63,225.18 h 145.64 l -71.46,204.746 z M 4633.03,2.98047 h -65.28 L 4510.67,165.93 h -188.4 L 4264.38,2.98047 h -67.99 L 4392.46,544.223 h 52.39 L 4633.03,2.98047" /><path
         id="path52"
         style="fill:#232324;fill-opacity:1;fill-rule:nonzero;stroke:none"
         d="m 4858.16,0 c -82.53,0 -145.06,30.9102 -185.91,91.8203 -32.36,47.9997 -48.76,109.4417 -48.76,182.6287 0,72.071 15.8,133.438 46.94,182.391 40.9,63.156 102.6,95.129 183.57,95.129 60.26,0 109.54,-17.903 146.51,-53.215 31.85,-30.652 53.01,-77.508 62.83,-139.285 l 2.1,-12.828 h -62.53 l -1.69,9.429 c -16.4,92.461 -64.55,137.442 -147.22,137.442 -59.59,0 -102.97,-23.203 -132.77,-70.84 -23.97,-38.363 -36.18,-87.992 -36.18,-147.442 0,-60.421 12.42,-110.242 36.95,-148.07 30.29,-46.2108 74.83,-68.6912 136.16,-68.6912 46.69,0 82.68,16.0429 110.13,49.1212 25.65,30.512 38.64,68.379 38.64,112.558 v 2.524 h -171.17 v 58.437 h 231.19 l 0.7,-10.589 c 1.19,-17.61 1.7,-31.329 1.7,-41.18 0,-61.32 -16.3,-113.141 -48.45,-154.2111 C 4982.89,25.332 4928.13,0 4858.16,0" /><path
         id="path54"
         style="fill:#232324;fill-opacity:1;fill-rule:nonzero;stroke:none"
         d="M 5447.36,2.98047 H 5108.87 V 544.223 h 335.1 V 485.777 H 5170.49 V 313.172 h 242.45 V 255.469 H 5170.49 V 61.4297 h 276.87 V 2.98047" /><path
         id="path56"
         style="fill:#232324;fill-opacity:1;fill-rule:nonzero;stroke:none"
         d="m 5741.05,2.98047 h -62.46 V 485.777 h -151.85 v 58.446 h 366.17 V 485.777 H 5741.05 V 2.98047" /></g></g></svg>